<svg width="1078" height="720" viewBox="0 0 1078 720" fill="none" xmlns="http://www.w3.org/2000/svg">
    <g opacity="0.1">
        <path d="M1076 359.667C1076 161.971 915.696 1.66675 718 1.66675C520.305 1.66675 360 161.971 360 359.667" stroke="white" stroke-width="3" stroke-miterlimit="10"/>
        <path d="M2.00024 359.667C2.00024 557.362 162.305 717.667 360 717.667C557.696 717.667 718 557.362 718 359.667" stroke="white" stroke-width="3" stroke-miterlimit="10"/>
        <path d="M181 538.667C279.859 538.667 360 458.526 360 359.667C360 260.808 279.859 180.667 181 180.667C82.1413 180.667 2.00024 260.808 2.00024 359.667C2.00024 458.526 82.1413 538.667 181 538.667Z" stroke="white" stroke-width="3" stroke-miterlimit="10"/>
        <path d="M539 538.667C637.859 538.667 718 458.526 718 359.667C718 260.808 637.859 180.667 539 180.667C440.141 180.667 360 260.808 360 359.667C360 458.526 440.141 538.667 539 538.667Z" stroke="white" stroke-width="3" stroke-miterlimit="10"/>
        <path d="M896.999 538.667C995.858 538.667 1076 458.526 1076 359.667C1076 260.808 995.858 180.667 896.999 180.667C798.141 180.667 718 260.808 718 359.667C718 458.526 798.141 538.667 896.999 538.667Z" stroke="white" stroke-width="3" stroke-miterlimit="10"/>
    </g>
</svg>
