<svg width="135" height="17" viewBox="0 0 135 17" xmlns="http://www.w3.org/2000/svg">
    <path d="M10.9048 10.9169C10.9048 13.9645 8.52381 16.3931 5.52381 16.3931C4.09524 16.3931 2.90476 15.9645 2.04762 15.2026V16.155H0V0.297852H2.04762V6.63119C2.95238 5.9169 4.14286 5.44071 5.52381 5.44071C8.52381 5.44071 10.9048 7.9169 10.9048 10.9169ZM8.85714 10.9169C8.85714 8.9169 7.33333 7.25023 5.28571 7.25023C4.04762 7.25023 2.90476 7.77404 2.09524 8.96452V12.9645C2.90476 14.1074 4.04762 14.6788 5.28571 14.6788C7.33333 14.6312 8.85714 12.9169 8.85714 10.9169Z" fill="white"/>
    <path d="M24.6192 7.25023C25.5715 6.15499 26.9525 5.4407 28.5715 5.4407V7.4407C26.9049 7.48832 25.5715 8.20261 24.6192 9.48832V16.155H22.5715V5.72642H24.6192V7.25023Z" fill="white"/>
    <path d="M49.5238 11.4883H40.9524C41.1429 13.2502 42.381 14.6788 44.5238 14.6788C45.7619 14.6788 46.6667 14.2026 47.0952 13.3931H49.3333C48.7143 15.2502 46.8572 16.4883 44.4762 16.4883C41.1905 16.4883 38.9524 14.0121 38.9524 10.9645C38.9524 7.77405 41.1905 5.3931 44.4286 5.3931C47.4286 5.3931 49.5714 7.63119 49.5714 10.8217C49.5714 11.155 49.5714 11.2979 49.5238 11.4883ZM41 10.2026H47.4762C47.2857 8.34548 46.1429 7.155 44.381 7.155C42.4762 7.155 41.2857 8.48833 41 10.2026Z" fill="white"/>
    <path d="M71.6191 5.72644V16.155H69.5715V15.2502C68.6667 15.9645 67.4763 16.4407 66.0953 16.4407C63.1429 16.4407 60.762 14.0122 60.762 10.9645C60.762 7.91691 63.1429 5.48834 66.0953 5.48834C67.4763 5.48834 68.7143 5.91691 69.5715 6.67882V5.77406H71.6191V5.72644ZM69.5715 12.9645V8.91691C68.762 7.72644 67.6191 7.25025 66.381 7.25025C64.3334 7.25025 62.8096 8.96453 62.8096 10.9645C62.8096 12.9169 64.3334 14.6312 66.381 14.6312C67.6191 14.6312 68.762 14.155 69.5715 12.9645Z" fill="white"/>
    <path d="M91.2856 16.1074C90.238 16.4407 89.6666 16.4883 88.857 16.4883C86.4285 16.4883 84.9999 14.9645 84.9999 12.2502V7.44069H82.4285V5.72641H84.9999V1.86926H87.0475V5.72641H90.9523V7.44069H87.0475V12.2502C87.0475 13.8693 87.8094 14.5835 89.238 14.5835C89.8094 14.5835 90.4285 14.4883 90.9999 14.2978L91.2856 16.1074Z" fill="white"/>
    <path d="M112.905 10.2502V16.155H110.857V10.3931C110.857 8.39309 109.714 7.25023 107.952 7.25023C106.81 7.25023 105.667 7.86928 104.81 9.01214V16.2026H102.762V0.297852H104.81V6.77404C105.762 5.9169 106.952 5.39309 108.333 5.39309C111.095 5.39309 112.905 7.29785 112.905 10.2502Z" fill="white"/>
    <path d="M134.952 11.4883H126.381C126.571 13.2502 127.809 14.6788 129.952 14.6788C131.19 14.6788 132.095 14.2026 132.524 13.3931H134.762C134.143 15.2502 132.286 16.4883 129.905 16.4883C126.619 16.4883 124.381 14.0121 124.381 10.9645C124.381 7.77405 126.619 5.3931 129.857 5.3931C132.857 5.3931 135 7.63119 135 10.8217C135 11.155 134.952 11.2979 134.952 11.4883ZM126.428 10.2026H132.905C132.714 8.34548 131.571 7.155 129.809 7.155C127.857 7.155 126.667 8.48833 126.428 10.2026Z" fill="white"/>
</svg>
